<?xml version="1.0" encoding="utf-8"?>
<!-- Generator: Adobe Illustrator 23.1.0, SVG Export Plug-In . SVG Version: 6.00 Build 0)  -->
<svg version="1.1" id="logo" xmlns="http://www.w3.org/2000/svg" xmlns:xlink="http://www.w3.org/1999/xlink" x="0px" y="0px"
	 viewBox="0 0 62.9 74.4" style="enable-background:new 0 0 62.9 74.4;" xml:space="preserve">
<style type="text/css">
	.st0{enable-background:new    ;}
	.st1{fill:#D8D8D8;}
	.st2{fill:#6CFE38;}
	.st3{fill:#707070;}
</style>
<g class="st0">
	<path class="st1" d="M76.2-92.8c0,1.9-0.7,3.4-2,4.5c-1.3,1.2-3.1,1.7-5.3,1.7c-2.1,0-3.9-0.6-5.3-1.8c-1.4-1.2-2.1-2.7-2.1-4.4
		c0-1.8,0.7-3.3,2-4.4c1.3-1.1,3.1-1.7,5.3-1.7c2.2,0,4,0.6,5.3,1.7C75.5-96,76.2-94.6,76.2-92.8z M62.3-52.6v-31.6h13.2v31.6H62.3z
		"/>
	<path class="st1" d="M116-57c0,6.1-1.9,10.8-5.7,14.2c-3.8,3.4-9.4,5.1-16.7,5.1c-2,0-3.9-0.2-5.7-0.5c-1.9-0.3-3.2-0.7-4-1v-10.3
		c1.3,0.8,2.9,1.5,4.6,2c1.8,0.5,3.3,0.7,4.7,0.7c2.9,0,5.3-0.7,7.1-2.1c1.8-1.4,2.7-3.3,2.7-5.7v-1.9h-0.1
		c-0.9,1.4-2.2,2.6-3.9,3.5c-1.7,0.9-3.4,1.3-5.3,1.3c-4.1,0-7.3-1.4-9.7-4.2c-2.4-2.8-3.6-6.7-3.6-11.7c0-3.4,0.6-6.4,1.9-9
		c1.2-2.6,3-4.6,5.2-6c2.2-1.4,4.6-2.1,7.3-2.1c3.6,0,6.4,1.3,8.2,4h0.1v-3.3H116V-57z M103.1-69.3c0-1.9-0.4-3.3-1.3-4.4
		c-0.8-1.1-1.9-1.6-3.3-1.6c-1.5,0-2.7,0.7-3.6,2c-0.9,1.3-1.3,3.1-1.3,5.3c0,2,0.4,3.7,1.1,4.8s1.9,1.8,3.5,1.8
		c1.5,0,2.7-0.6,3.5-1.8c0.9-1.2,1.3-2.9,1.3-4.9V-69.3z"/>
	<path class="st1" d="M142.7-52.6v-18c0-3.1-1.2-4.7-3.6-4.7c-1.2,0-2.1,0.4-2.7,1.3s-0.9,2-0.9,3.4v18h-13.2v-46.8h13.2v19.5h0.1
		c1.1-1.6,2.5-2.9,4.1-3.8c1.6-0.9,3.3-1.3,5.2-1.3c3.4,0,6,1.1,7.8,3.3c1.8,2.2,2.7,5.4,2.7,9.7v19.4H142.7z"/>
	<path class="st1" d="M187.4-69.4l10.2,16.8h-15.1l-3.4-7.2c-0.4-0.8-0.8-1.9-1.3-3.3h-0.1c-0.4,1.4-0.7,2.3-0.8,2.6s-1.3,3-3.6,7.9
		h-15l10.5-15.9l-9.9-15.7h15.2l3.4,7.3c0.5,0.8,0.9,2,1.4,3.5h0.1c0.6-1.8,1-3,1.3-3.5l3.2-7.3h14.4L187.4-69.4z"/>
</g>
<path class="st1" d="M54.8-56.3v-40.6H42.4V-77c0,1.7,0,3.1,0.1,4L54.8-56.3z"/>
<path class="st2" d="M51.8-37.8L2.6-106.1h7.9l49.8,68.3H51.8z"/>
<path class="st1" d="M12.1-92.8v40.2h12.3v-18.6c0-1.6,0-3.1-0.1-4.6L12.1-92.8z"/>
<g>
	<path class="st1" d="M54.8,52.9V12.3H42.4v19.9c0,1.7,0,3.1,0.1,4L54.8,52.9z"/>
	<path class="st2" d="M51.8,71.4L2.6,3.1h7.9l49.8,68.3H51.8z"/>
	<path class="st1" d="M12.1,16.3v40.2h12.3V37.9c0-1.6,0-3.1-0.1-4.6L12.1,16.3z"/>
</g>
<g class="st0">
	<path class="st3" d="M76.2-199.4c0,1.9-0.7,3.4-2,4.5c-1.3,1.2-3.1,1.7-5.3,1.7c-2.1,0-3.9-0.6-5.3-1.8c-1.4-1.2-2.1-2.7-2.1-4.4
		c0-1.8,0.7-3.3,2-4.4c1.3-1.1,3.1-1.7,5.3-1.7c2.2,0,4,0.6,5.3,1.7C75.5-202.6,76.2-201.2,76.2-199.4z M62.3-159.2v-31.6h13.2v31.6
		H62.3z"/>
	<path class="st3" d="M116-163.6c0,6.1-1.9,10.8-5.7,14.2c-3.8,3.4-9.4,5.1-16.7,5.1c-2,0-3.9-0.2-5.7-0.5c-1.9-0.3-3.2-0.7-4-1
		v-10.3c1.3,0.8,2.9,1.5,4.6,2c1.8,0.5,3.3,0.7,4.7,0.7c2.9,0,5.3-0.7,7.1-2.1c1.8-1.4,2.7-3.3,2.7-5.7v-1.9h-0.1
		c-0.9,1.4-2.2,2.6-3.9,3.5c-1.7,0.9-3.4,1.3-5.3,1.3c-4.1,0-7.3-1.4-9.7-4.2c-2.4-2.8-3.6-6.7-3.6-11.7c0-3.4,0.6-6.4,1.9-9
		c1.2-2.6,3-4.6,5.2-6c2.2-1.4,4.6-2.1,7.3-2.1c3.6,0,6.4,1.3,8.2,4h0.1v-3.3H116V-163.6z M103.1-175.9c0-1.9-0.4-3.3-1.3-4.4
		c-0.8-1.1-1.9-1.6-3.3-1.6c-1.5,0-2.7,0.7-3.6,2c-0.9,1.3-1.3,3.1-1.3,5.3c0,2,0.4,3.7,1.1,4.8s1.9,1.8,3.5,1.8
		c1.5,0,2.7-0.6,3.5-1.8c0.9-1.2,1.3-2.9,1.3-4.9V-175.9z"/>
	<path class="st3" d="M142.7-159.2v-18c0-3.1-1.2-4.7-3.6-4.7c-1.2,0-2.1,0.4-2.7,1.3s-0.9,2-0.9,3.4v18h-13.2V-206h13.2v19.5h0.1
		c1.1-1.6,2.5-2.9,4.1-3.8c1.6-0.9,3.3-1.3,5.2-1.3c3.4,0,6,1.1,7.8,3.3c1.8,2.2,2.7,5.4,2.7,9.7v19.4H142.7z"/>
	<path class="st3" d="M187.4-176l10.2,16.8h-15.1l-3.4-7.2c-0.4-0.8-0.8-1.9-1.3-3.3h-0.1c-0.4,1.4-0.7,2.3-0.8,2.6s-1.3,3-3.6,7.9
		h-15l10.5-15.9l-9.9-15.7h15.2l3.4,7.3c0.5,0.8,0.9,2,1.4,3.5h0.1c0.6-1.8,1-3,1.3-3.5l3.2-7.3h14.4L187.4-176z"/>
</g>
<path class="st3" d="M54.8-162.9v-40.6H42.4v19.9c0,1.7,0,3.1,0.1,4L54.8-162.9z"/>
<path class="st2" d="M51.8-144.4L2.6-212.7h7.9l49.8,68.3H51.8z"/>
<path class="st3" d="M12.1-199.4v40.2h12.3v-18.6c0-1.6,0-3.1-0.1-4.6L12.1-199.4z"/>
</svg>
