<svg xmlns="http://www.w3.org/2000/svg" width="25" height="25" viewBox="0 0 50 50">
  <g id="search-icon" transform="translate(-1513 -293)">
    <g id="Group_1045" data-name="Group 1045" transform="translate(1 0.761)">
      <path id="Exclusion_13" data-name="Exclusion 13" d="M12.958,25.67A12.935,12.935,0,0,1,3.8,21.911a12.749,12.749,0,0,1,0-18.151,13.045,13.045,0,0,1,18.325,0,12.749,12.749,0,0,1,0,18.151A12.936,12.936,0,0,1,12.958,25.67Zm0-20.916a8.081,8.081,0,1,0,8.158,8.081A8.129,8.129,0,0,0,12.958,4.754Z" transform="translate(1516 314.564) rotate(-45)" fill="#69ff33"/>
      <rect id="Rectangle_1783" data-name="Rectangle 1783" width="5.759" height="22.818" rx="2.88" transform="translate(1538.256 321.888) rotate(-45)" fill="#69ff33"/>
    </g>
    <rect id="Rectangle_1784" data-name="Rectangle 1784" width="25" height="25" transform="translate(1513 293)" fill="none"/>
  </g>
</svg>
