<svg xmlns="http://www.w3.org/2000/svg" width="132.609" height="26.532" viewBox="0 0 132.609 26.532">
  <g id="social-footer" transform="translate(25 10.531)">
    <path id="Path_1" data-name="Path 1" d="M88.991,26.532V14.445h4.127l.59-4.717H88.991V6.78c0-1.327.442-2.358,2.358-2.358h2.506V.147C93.266.147,91.792,0,90.171,0c-3.538,0-6.043,2.211-6.043,6.191V9.728H80v4.717h4.127V26.532Z" transform="translate(-48 -10.531)" fill="#707070" fill-rule="evenodd"/>
    <path id="Path_2" data-name="Path 2" d="M47.959,27.508c11.881,0,18.345-9.784,18.345-18.345V8.29a14.2,14.2,0,0,0,3.145-3.32A14.5,14.5,0,0,1,65.78,6.018a6.8,6.8,0,0,0,2.8-3.494A16.025,16.025,0,0,1,64.557,4.1,6.24,6.24,0,0,0,59.839,2a6.564,6.564,0,0,0-6.464,6.464,3.406,3.406,0,0,0,.175,1.4A18.063,18.063,0,0,1,40.271,3.048a6.691,6.691,0,0,0-.874,3.32,6.942,6.942,0,0,0,2.8,5.416,5.89,5.89,0,0,1-2.97-.874h0a6.385,6.385,0,0,0,5.241,6.29,5.386,5.386,0,0,1-1.747.175,2.973,2.973,0,0,1-1.223-.175,6.619,6.619,0,0,0,6.115,4.543,13.191,13.191,0,0,1-8.037,2.8A4.837,4.837,0,0,1,38,24.363a16.491,16.491,0,0,0,9.959,3.145" transform="translate(38.161 -12.531)" fill="#707070" fill-rule="evenodd"/>
    <path id="Path_3" data-name="Path 3" d="M13.266,2.358a40.675,40.675,0,0,1,5.306.147,6.836,6.836,0,0,1,2.506.442,5.176,5.176,0,0,1,2.506,2.506,6.836,6.836,0,0,1,.442,2.506c0,1.327.147,1.769.147,5.306a40.675,40.675,0,0,1-.147,5.306,6.836,6.836,0,0,1-.442,2.506,5.176,5.176,0,0,1-2.506,2.506,6.836,6.836,0,0,1-2.506.442c-1.327,0-1.769.147-5.306.147a40.675,40.675,0,0,1-5.306-.147,6.836,6.836,0,0,1-2.506-.442,5.176,5.176,0,0,1-2.506-2.506,6.836,6.836,0,0,1-.442-2.506c0-1.327-.147-1.769-.147-5.306a40.675,40.675,0,0,1,.147-5.306,6.836,6.836,0,0,1,.442-2.506A5.294,5.294,0,0,1,3.98,3.98,2.492,2.492,0,0,1,5.454,2.948a6.836,6.836,0,0,1,2.506-.442,40.675,40.675,0,0,1,5.306-.147m0-2.358A43.551,43.551,0,0,0,7.812.147a9.1,9.1,0,0,0-3.243.59A5.77,5.77,0,0,0,2.211,2.211,5.77,5.77,0,0,0,.737,4.569a6.716,6.716,0,0,0-.59,3.243A43.551,43.551,0,0,0,0,13.266a43.551,43.551,0,0,0,.147,5.454,9.1,9.1,0,0,0,.59,3.243A5.77,5.77,0,0,0,2.211,24.32a5.77,5.77,0,0,0,2.358,1.474,9.1,9.1,0,0,0,3.243.59,43.551,43.551,0,0,0,5.454.147,43.551,43.551,0,0,0,5.454-.147,9.1,9.1,0,0,0,3.243-.59,6.184,6.184,0,0,0,3.832-3.832,9.1,9.1,0,0,0,.59-3.243c0-1.474.147-1.916.147-5.454a43.551,43.551,0,0,0-.147-5.454,9.1,9.1,0,0,0-.59-3.243A5.77,5.77,0,0,0,24.32,2.211,5.77,5.77,0,0,0,21.962.737a9.1,9.1,0,0,0-3.243-.59A43.551,43.551,0,0,0,13.266,0m0,6.485a6.671,6.671,0,0,0-6.78,6.78,6.78,6.78,0,1,0,6.78-6.78m0,11.2a4.343,4.343,0,0,1-4.422-4.422,4.343,4.343,0,0,1,4.422-4.422,4.343,4.343,0,0,1,4.422,4.422,4.343,4.343,0,0,1-4.422,4.422M20.341,4.569a1.621,1.621,0,1,0,1.621,1.621,1.636,1.636,0,0,0-1.621-1.621" transform="translate(-25 -10.531)" fill="#707070" fill-rule="evenodd"/>
  </g>
</svg>
