<svg xmlns="http://www.w3.org/2000/svg" width="45" height="45" viewBox="0 0 45 45">
  <g id="tdown-red-icon" transform="translate(-9.32 -89.319)">
    <g id="Ellipse_279" data-name="Ellipse 279" transform="translate(9.32 89.32)" fill="#414141" stroke="#810000" stroke-width="2">
      <circle cx="22.5" cy="22.5" r="22.5" stroke="none"/>
      <circle cx="22.5" cy="22.5" r="21.5" fill="none"/>
    </g>
    <path id="Icon_awesome-thumbs-up" data-name="Icon awesome-thumbs-up" d="M26.162,4.824c0,2.512-1.538,3.921-1.971,5.6h6.024a3.538,3.538,0,0,1,3.527,3.441,4.288,4.288,0,0,1-1.151,2.913l-.007.007a4.947,4.947,0,0,1-.551,4.706,4.683,4.683,0,0,1-.97,4.427,3.144,3.144,0,0,1-.364,2.643c-1.209,1.737-4.2,1.761-6.738,1.761h-.168a17,17,0,0,1-7.08-1.879,9.32,9.32,0,0,0-3.118-.958.711.711,0,0,1-.7-.711V14.114a.71.71,0,0,1,.211-.5c2.346-2.318,3.355-4.772,5.277-6.7a7.172,7.172,0,0,0,1.5-3.488C20.152,2.327,20.7,0,21.9,0,23.32,0,26.162.474,26.162,4.824Z" transform="translate(55.639 128.64) rotate(180)" fill="none" stroke="#810000" stroke-width="2"/>
  </g>
</svg>
