<svg xmlns="http://www.w3.org/2000/svg" width="49.25" height="49.249" viewBox="0 0 49.25 49.249">
  <g id="Component_4" data-name="Component 4" transform="translate(0)">
    <path id="Union_50" data-name="Union 50" d="M10.559,40.854v-15.4A12.91,12.91,0,0,1,3.8,21.911a12.749,12.749,0,0,1,0-18.151,13.045,13.045,0,0,1,18.325,0,12.749,12.749,0,0,1,0,18.151,12.914,12.914,0,0,1-5.8,3.326V40.854a2.88,2.88,0,1,1-5.759,0ZM4.8,12.835a8.158,8.158,0,1,0,8.159-8.081A8.128,8.128,0,0,0,4.8,12.835Z" transform="translate(0 18.325) rotate(-45)" fill="#69ff33"/>
  </g>
</svg>
